<svg xmlns="http://www.w3.org/2000/svg" viewBox="0 0 783 635" width="783" height="635">
	<style>
		tspan { white-space:pre }
		.shp0 { fill: #3f3d56 } 
		.shp1 { fill: #e6e6e6 } 
		.shp2 { fill: #0b4f6c } 
		.shp3 { fill: #ffffff } 
		.shp4 { fill: #ffb8b8 } 
		.shp5 { fill: #2f2e41 } 
	</style>
	<path id="Layer" class="shp0" d="M0.99 634.12L258.73 634.12L258.73 632.02L0.61 632.02L0.99 634.12L0.99 634.12Z" />
	<path id="Layer" class="shp1" d="M776.19 13.63C779.96 13.63 783 10.58 783 6.81C783 3.05 779.96 0 776.19 0C772.42 0 769.37 3.05 769.37 6.81C769.37 10.58 772.42 13.63 776.19 13.63Z" />
	<path id="Layer" class="shp1" d="M741.7 13.63C745.47 13.63 748.51 10.58 748.51 6.81C748.51 3.05 745.47 0 741.7 0C737.93 0 734.88 3.05 734.88 6.81C734.88 10.58 737.93 13.63 741.7 13.63Z" />
	<path id="Layer" class="shp1" d="M707.21 13.63C710.98 13.63 714.02 10.58 714.02 6.81C714.02 3.05 710.98 0 707.21 0C703.44 0 700.4 3.05 700.4 6.81C700.4 10.58 703.44 13.63 707.21 13.63Z" />
	<path id="Layer" class="shp1" d="M672.72 13.63C676.49 13.63 679.53 10.58 679.53 6.81C679.53 3.05 676.49 0 672.72 0C668.95 0 665.91 3.05 665.91 6.81C665.91 10.58 668.95 13.63 672.72 13.63Z" />
	<path id="Layer" class="shp1" d="M638.23 13.63C642 13.63 645.04 10.58 645.04 6.81C645.04 3.05 642 0 638.23 0C634.46 0 631.42 3.05 631.42 6.81C631.42 10.58 634.46 13.63 638.23 13.63Z" />
	<path id="Layer" class="shp1" d="M603.74 13.63C607.51 13.63 610.56 10.58 610.56 6.81C610.56 3.05 607.51 0 603.74 0C599.97 0 596.93 3.05 596.93 6.81C596.93 10.58 599.97 13.63 603.74 13.63Z" />
	<path id="Layer" class="shp1" d="M569.25 13.63C573.02 13.63 576.07 10.58 576.07 6.81C576.07 3.05 573.02 0 569.25 0C565.49 0 562.44 3.05 562.44 6.81C562.44 10.58 565.49 13.63 569.25 13.63Z" />
	<path id="Layer" class="shp1" d="M534.76 13.63C538.53 13.63 541.58 10.58 541.58 6.81C541.58 3.05 538.53 0 534.76 0C531 0 527.95 3.05 527.95 6.81C527.95 10.58 531 13.63 534.76 13.63Z" />
	<path id="Layer" class="shp1" d="M500.28 13.63C504.04 13.63 507.09 10.58 507.09 6.81C507.09 3.05 504.04 0 500.28 0C496.51 0 493.46 3.05 493.46 6.81C493.46 10.58 496.51 13.63 500.28 13.63Z" />
	<path id="Layer" class="shp1" d="M465.79 13.63C469.55 13.63 472.6 10.58 472.6 6.81C472.6 3.05 469.55 0 465.79 0C462.02 0 458.97 3.05 458.97 6.81C458.97 10.58 462.02 13.63 465.79 13.63Z" />
	<path id="Layer" class="shp1" d="M776.19 48.55C779.96 48.55 783 45.5 783 41.74C783 37.97 779.96 34.92 776.19 34.92C772.42 34.92 769.37 37.97 769.37 41.74C769.37 45.5 772.42 48.55 776.19 48.55Z" />
	<path id="Layer" class="shp1" d="M741.7 48.55C745.47 48.55 748.51 45.5 748.51 41.74C748.51 37.97 745.47 34.92 741.7 34.92C737.93 34.92 734.88 37.97 734.88 41.74C734.88 45.5 737.93 48.55 741.7 48.55Z" />
	<path id="Layer" class="shp1" d="M707.21 48.55C710.98 48.55 714.02 45.5 714.02 41.74C714.02 37.97 710.98 34.92 707.21 34.92C703.44 34.92 700.4 37.97 700.4 41.74C700.4 45.5 703.44 48.55 707.21 48.55Z" />
	<path id="Layer" class="shp2" d="M672.72 48.55C676.49 48.55 679.53 45.5 679.53 41.74C679.53 37.97 676.49 34.92 672.72 34.92C668.95 34.92 665.91 37.97 665.91 41.74C665.91 45.5 668.95 48.55 672.72 48.55Z" />
	<path id="Layer" class="shp1" d="M638.23 48.55C642 48.55 645.04 45.5 645.04 41.74C645.04 37.97 642 34.92 638.23 34.92C634.46 34.92 631.42 37.97 631.42 41.74C631.42 45.5 634.46 48.55 638.23 48.55Z" />
	<path id="Layer" class="shp1" d="M603.74 48.55C607.51 48.55 610.56 45.5 610.56 41.74C610.56 37.97 607.51 34.92 603.74 34.92C599.97 34.92 596.93 37.97 596.93 41.74C596.93 45.5 599.97 48.55 603.74 48.55Z" />
	<path id="Layer" class="shp1" d="M569.25 48.55C573.02 48.55 576.07 45.5 576.07 41.74C576.07 37.97 573.02 34.92 569.25 34.92C565.49 34.92 562.44 37.97 562.44 41.74C562.44 45.5 565.49 48.55 569.25 48.55Z" />
	<path id="Layer" class="shp1" d="M534.76 48.55C538.53 48.55 541.58 45.5 541.58 41.74C541.58 37.97 538.53 34.92 534.76 34.92C531 34.92 527.95 37.97 527.95 41.74C527.95 45.5 531 48.55 534.76 48.55Z" />
	<path id="Layer" class="shp1" d="M500.28 48.55C504.04 48.55 507.09 45.5 507.09 41.74C507.09 37.97 504.04 34.92 500.28 34.92C496.51 34.92 493.46 37.97 493.46 41.74C493.46 45.5 496.51 48.55 500.28 48.55Z" />
	<path id="Layer" class="shp1" d="M465.79 48.55C469.55 48.55 472.6 45.5 472.6 41.74C472.6 37.97 469.55 34.92 465.79 34.92C462.02 34.92 458.97 37.97 458.97 41.74C458.97 45.5 462.02 48.55 465.79 48.55Z" />
	<path id="Layer" class="shp1" d="M776.19 83.47C779.96 83.47 783 80.43 783 76.66C783 72.89 779.96 69.84 776.19 69.84C772.42 69.84 769.37 72.89 769.37 76.66C769.37 80.43 772.42 83.47 776.19 83.47Z" />
	<path id="Layer" class="shp1" d="M741.7 83.47C745.47 83.47 748.51 80.43 748.51 76.66C748.51 72.89 745.47 69.84 741.7 69.84C737.93 69.84 734.88 72.89 734.88 76.66C734.88 80.43 737.93 83.47 741.7 83.47Z" />
	<path id="Layer" class="shp1" d="M707.21 83.47C710.98 83.47 714.02 80.43 714.02 76.66C714.02 72.89 710.98 69.84 707.21 69.84C703.44 69.84 700.4 72.89 700.4 76.66C700.4 80.43 703.44 83.47 707.21 83.47Z" />
	<path id="Layer" class="shp1" d="M672.72 83.47C676.49 83.47 679.53 80.43 679.53 76.66C679.53 72.89 676.49 69.84 672.72 69.84C668.95 69.84 665.91 72.89 665.91 76.66C665.91 80.43 668.95 83.47 672.72 83.47Z" />
	<path id="Layer" class="shp1" d="M638.23 83.47C642 83.47 645.04 80.43 645.04 76.66C645.04 72.89 642 69.84 638.23 69.84C634.46 69.84 631.42 72.89 631.42 76.66C631.42 80.43 634.46 83.47 638.23 83.47Z" />
	<path id="Layer" class="shp1" d="M603.74 83.47C607.51 83.47 610.56 80.43 610.56 76.66C610.56 72.89 607.51 69.84 603.74 69.84C599.97 69.84 596.93 72.89 596.93 76.66C596.93 80.43 599.97 83.47 603.74 83.47Z" />
	<path id="Layer" class="shp1" d="M569.25 83.47C573.02 83.47 576.07 80.43 576.07 76.66C576.07 72.89 573.02 69.84 569.25 69.84C565.49 69.84 562.44 72.89 562.44 76.66C562.44 80.43 565.49 83.47 569.25 83.47Z" />
	<path id="Layer" class="shp1" d="M534.76 83.47C538.53 83.47 541.58 80.43 541.58 76.66C541.58 72.89 538.53 69.84 534.76 69.84C531 69.84 527.95 72.89 527.95 76.66C527.95 80.43 531 83.47 534.76 83.47Z" />
	<path id="Layer" class="shp1" d="M500.28 83.47C504.04 83.47 507.09 80.43 507.09 76.66C507.09 72.89 504.04 69.84 500.28 69.84C496.51 69.84 493.46 72.89 493.46 76.66C493.46 80.43 496.51 83.47 500.28 83.47Z" />
	<path id="Layer" class="shp1" d="M465.79 83.47C469.55 83.47 472.6 80.43 472.6 76.66C472.6 72.89 469.55 69.84 465.79 69.84C462.02 69.84 458.97 72.89 458.97 76.66C458.97 80.43 462.02 83.47 465.79 83.47Z" />
	<path id="Layer" class="shp1" d="M776.19 118.39C779.96 118.39 783 115.35 783 111.58C783 107.81 779.96 104.77 776.19 104.77C772.42 104.77 769.37 107.81 769.37 111.58C769.37 115.35 772.42 118.39 776.19 118.39Z" />
	<path id="Layer" class="shp1" d="M741.7 118.39C745.47 118.39 748.51 115.35 748.51 111.58C748.51 107.81 745.47 104.77 741.7 104.77C737.93 104.77 734.88 107.81 734.88 111.58C734.88 115.35 737.93 118.39 741.7 118.39Z" />
	<path id="Layer" class="shp1" d="M707.21 118.39C710.98 118.39 714.02 115.35 714.02 111.58C714.02 107.81 710.98 104.77 707.21 104.77C703.44 104.77 700.4 107.81 700.4 111.58C700.4 115.35 703.44 118.39 707.21 118.39Z" />
	<path id="Layer" class="shp1" d="M672.72 118.39C676.49 118.39 679.53 115.35 679.53 111.58C679.53 107.81 676.49 104.77 672.72 104.77C668.95 104.77 665.91 107.81 665.91 111.58C665.91 115.35 668.95 118.39 672.72 118.39Z" />
	<path id="Layer" class="shp1" d="M638.23 118.39C642 118.39 645.04 115.35 645.04 111.58C645.04 107.81 642 104.77 638.23 104.77C634.46 104.77 631.42 107.81 631.42 111.58C631.42 115.35 634.46 118.39 638.23 118.39Z" />
	<path id="Layer" class="shp1" d="M603.74 118.39C607.51 118.39 610.56 115.35 610.56 111.58C610.56 107.81 607.51 104.77 603.74 104.77C599.97 104.77 596.93 107.81 596.93 111.58C596.93 115.35 599.97 118.39 603.74 118.39Z" />
	<path id="Layer" class="shp1" d="M569.25 118.39C573.02 118.39 576.07 115.35 576.07 111.58C576.07 107.81 573.02 104.77 569.25 104.77C565.49 104.77 562.44 107.81 562.44 111.58C562.44 115.35 565.49 118.39 569.25 118.39Z" />
	<path id="Layer" class="shp1" d="M534.76 118.39C538.53 118.39 541.58 115.35 541.58 111.58C541.58 107.81 538.53 104.77 534.76 104.77C531 104.77 527.95 107.81 527.95 111.58C527.95 115.35 531 118.39 534.76 118.39Z" />
	<path id="Layer" class="shp1" d="M500.28 118.39C504.04 118.39 507.09 115.35 507.09 111.58C507.09 107.81 504.04 104.77 500.28 104.77C496.51 104.77 493.46 107.81 493.46 111.58C493.46 115.35 496.51 118.39 500.28 118.39Z" />
	<path id="Layer" class="shp1" d="M465.79 118.39C469.55 118.39 472.6 115.35 472.6 111.58C472.6 107.81 469.55 104.77 465.79 104.77C462.02 104.77 458.97 107.81 458.97 111.58C458.97 115.35 462.02 118.39 465.79 118.39Z" />
	<path id="Layer" class="shp1" d="M776.19 153.32C779.96 153.32 783 150.27 783 146.5C783 142.73 779.96 139.69 776.19 139.69C772.42 139.69 769.37 142.73 769.37 146.5C769.37 150.27 772.42 153.32 776.19 153.32Z" />
	<path id="Layer" class="shp2" d="M741.7 153.32C745.47 153.32 748.51 150.27 748.51 146.5C748.51 142.73 745.47 139.69 741.7 139.69C737.93 139.69 734.88 142.73 734.88 146.5C734.88 150.27 737.93 153.32 741.7 153.32Z" />
	<path id="Layer" class="shp1" d="M707.21 153.32C710.98 153.32 714.02 150.27 714.02 146.5C714.02 142.73 710.98 139.69 707.21 139.69C703.44 139.69 700.4 142.73 700.4 146.5C700.4 150.27 703.44 153.32 707.21 153.32Z" />
	<path id="Layer" class="shp1" d="M672.72 153.32C676.49 153.32 679.53 150.27 679.53 146.5C679.53 142.73 676.49 139.69 672.72 139.69C668.95 139.69 665.91 142.73 665.91 146.5C665.91 150.27 668.95 153.32 672.72 153.32Z" />
	<path id="Layer" class="shp1" d="M638.23 153.32C642 153.32 645.04 150.27 645.04 146.5C645.04 142.73 642 139.69 638.23 139.69C634.46 139.69 631.42 142.73 631.42 146.5C631.42 150.27 634.46 153.32 638.23 153.32Z" />
	<path id="Layer" class="shp1" d="M603.74 153.32C607.51 153.32 610.56 150.27 610.56 146.5C610.56 142.73 607.51 139.69 603.74 139.69C599.97 139.69 596.93 142.73 596.93 146.5C596.93 150.27 599.97 153.32 603.74 153.32Z" />
	<path id="Layer" class="shp1" d="M569.25 153.32C573.02 153.32 576.07 150.27 576.07 146.5C576.07 142.73 573.02 139.69 569.25 139.69C565.49 139.69 562.44 142.73 562.44 146.5C562.44 150.27 565.49 153.32 569.25 153.32Z" />
	<path id="Layer" class="shp1" d="M534.76 153.32C538.53 153.32 541.58 150.27 541.58 146.5C541.58 142.73 538.53 139.69 534.76 139.69C531 139.69 527.95 142.73 527.95 146.5C527.95 150.27 531 153.32 534.76 153.32Z" />
	<path id="Layer" class="shp1" d="M500.28 153.32C504.04 153.32 507.09 150.27 507.09 146.5C507.09 142.73 504.04 139.69 500.28 139.69C496.51 139.69 493.46 142.73 493.46 146.5C493.46 150.27 496.51 153.32 500.28 153.32Z" />
	<path id="Layer" class="shp1" d="M465.79 153.32C469.55 153.32 472.6 150.27 472.6 146.5C472.6 142.73 469.55 139.69 465.79 139.69C462.02 139.69 458.97 142.73 458.97 146.5C458.97 150.27 462.02 153.32 465.79 153.32Z" />
	<path id="Layer" class="shp1" d="M776.19 188.24C779.96 188.24 783 185.19 783 181.42C783 177.66 779.96 174.61 776.19 174.61C772.42 174.61 769.37 177.66 769.37 181.42C769.37 185.19 772.42 188.24 776.19 188.24Z" />
	<path id="Layer" class="shp1" d="M741.7 188.24C745.47 188.24 748.51 185.19 748.51 181.42C748.51 177.66 745.47 174.61 741.7 174.61C737.93 174.61 734.88 177.66 734.88 181.42C734.88 185.19 737.93 188.24 741.7 188.24Z" />
	<path id="Layer" class="shp1" d="M707.21 188.24C710.98 188.24 714.02 185.19 714.02 181.42C714.02 177.66 710.98 174.61 707.21 174.61C703.44 174.61 700.4 177.66 700.4 181.42C700.4 185.19 703.44 188.24 707.21 188.24Z" />
	<path id="Layer" class="shp1" d="M672.72 188.24C676.49 188.24 679.53 185.19 679.53 181.42C679.53 177.66 676.49 174.61 672.72 174.61C668.95 174.61 665.91 177.66 665.91 181.42C665.91 185.19 668.95 188.24 672.72 188.24Z" />
	<path id="Layer" class="shp1" d="M638.23 188.24C642 188.24 645.04 185.19 645.04 181.42C645.04 177.66 642 174.61 638.23 174.61C634.46 174.61 631.42 177.66 631.42 181.42C631.42 185.19 634.46 188.24 638.23 188.24Z" />
	<path id="Layer" class="shp1" d="M603.74 188.24C607.51 188.24 610.56 185.19 610.56 181.42C610.56 177.66 607.51 174.61 603.74 174.61C599.97 174.61 596.93 177.66 596.93 181.42C596.93 185.19 599.97 188.24 603.74 188.24Z" />
	<path id="Layer" class="shp1" d="M569.25 188.24C573.02 188.24 576.07 185.19 576.07 181.42C576.07 177.66 573.02 174.61 569.25 174.61C565.49 174.61 562.44 177.66 562.44 181.42C562.44 185.19 565.49 188.24 569.25 188.24Z" />
	<path id="Layer" class="shp1" d="M534.76 188.24C538.53 188.24 541.58 185.19 541.58 181.42C541.58 177.66 538.53 174.61 534.76 174.61C531 174.61 527.95 177.66 527.95 181.42C527.95 185.19 531 188.24 534.76 188.24Z" />
	<path id="Layer" class="shp1" d="M500.28 188.24C504.04 188.24 507.09 185.19 507.09 181.42C507.09 177.66 504.04 174.61 500.28 174.61C496.51 174.61 493.46 177.66 493.46 181.42C493.46 185.19 496.51 188.24 500.28 188.24Z" />
	<path id="Layer" class="shp1" d="M465.79 188.24C469.55 188.24 472.6 185.19 472.6 181.42C472.6 177.66 469.55 174.61 465.79 174.61C462.02 174.61 458.97 177.66 458.97 181.42C458.97 185.19 462.02 188.24 465.79 188.24Z" />
	<path id="Layer" class="shp1" d="M776.19 223.16C779.96 223.16 783 220.11 783 216.35C783 212.58 779.96 209.53 776.19 209.53C772.42 209.53 769.37 212.58 769.37 216.35C769.37 220.11 772.42 223.16 776.19 223.16Z" />
	<path id="Layer" class="shp1" d="M741.7 223.16C745.47 223.16 748.51 220.11 748.51 216.35C748.51 212.58 745.47 209.53 741.7 209.53C737.93 209.53 734.88 212.58 734.88 216.35C734.88 220.11 737.93 223.16 741.7 223.16Z" />
	<path id="Layer" class="shp2" d="M707.21 223.16C710.98 223.16 714.02 220.11 714.02 216.35C714.02 212.58 710.98 209.53 707.21 209.53C703.44 209.53 700.4 212.58 700.4 216.35C700.4 220.11 703.44 223.16 707.21 223.16Z" />
	<path id="Layer" class="shp1" d="M672.72 223.16C676.49 223.16 679.53 220.11 679.53 216.35C679.53 212.58 676.49 209.53 672.72 209.53C668.95 209.53 665.91 212.58 665.91 216.35C665.91 220.11 668.95 223.16 672.72 223.16Z" />
	<path id="Layer" class="shp1" d="M638.23 223.16C642 223.16 645.04 220.11 645.04 216.35C645.04 212.58 642 209.53 638.23 209.53C634.46 209.53 631.42 212.58 631.42 216.35C631.42 220.11 634.46 223.16 638.23 223.16Z" />
	<path id="Layer" class="shp1" d="M603.74 223.16C607.51 223.16 610.56 220.11 610.56 216.35C610.56 212.58 607.51 209.53 603.74 209.53C599.97 209.53 596.93 212.58 596.93 216.35C596.93 220.11 599.97 223.16 603.74 223.16Z" />
	<path id="Layer" class="shp1" d="M569.25 223.16C573.02 223.16 576.07 220.11 576.07 216.35C576.07 212.58 573.02 209.53 569.25 209.53C565.49 209.53 562.44 212.58 562.44 216.35C562.44 220.11 565.49 223.16 569.25 223.16Z" />
	<path id="Layer" class="shp1" d="M534.76 223.16C538.53 223.16 541.58 220.11 541.58 216.35C541.58 212.58 538.53 209.53 534.76 209.53C531 209.53 527.95 212.58 527.95 216.35C527.95 220.11 531 223.16 534.76 223.16Z" />
	<path id="Layer" class="shp1" d="M500.28 223.16C504.04 223.16 507.09 220.11 507.09 216.35C507.09 212.58 504.04 209.53 500.28 209.53C496.51 209.53 493.46 212.58 493.46 216.35C493.46 220.11 496.51 223.16 500.28 223.16Z" />
	<path id="Layer" class="shp1" d="M465.79 223.16C469.55 223.16 472.6 220.11 472.6 216.35C472.6 212.58 469.55 209.53 465.79 209.53C462.02 209.53 458.97 212.58 458.97 216.35C458.97 220.11 462.02 223.16 465.79 223.16Z" />
	<path id="Layer" class="shp1" d="M776.19 258.08C779.96 258.08 783 255.04 783 251.27C783 247.5 779.96 244.45 776.19 244.45C772.42 244.45 769.37 247.5 769.37 251.27C769.37 255.04 772.42 258.08 776.19 258.08Z" />
	<path id="Layer" class="shp1" d="M741.7 258.08C745.47 258.08 748.51 255.04 748.51 251.27C748.51 247.5 745.47 244.45 741.7 244.45C737.93 244.45 734.88 247.5 734.88 251.27C734.88 255.04 737.93 258.08 741.7 258.08Z" />
	<path id="Layer" class="shp1" d="M707.21 258.08C710.98 258.08 714.02 255.04 714.02 251.27C714.02 247.5 710.98 244.45 707.21 244.45C703.44 244.45 700.4 247.5 700.4 251.27C700.4 255.04 703.44 258.08 707.21 258.08Z" />
	<path id="Layer" class="shp1" d="M672.72 258.08C676.49 258.08 679.53 255.04 679.53 251.27C679.53 247.5 676.49 244.45 672.72 244.45C668.95 244.45 665.91 247.5 665.91 251.27C665.91 255.04 668.95 258.08 672.72 258.08Z" />
	<path id="Layer" class="shp1" d="M638.23 258.08C642 258.08 645.04 255.04 645.04 251.27C645.04 247.5 642 244.45 638.23 244.45C634.46 244.45 631.42 247.5 631.42 251.27C631.42 255.04 634.46 258.08 638.23 258.08Z" />
	<path id="Layer" class="shp1" d="M603.74 258.08C607.51 258.08 610.56 255.04 610.56 251.27C610.56 247.5 607.51 244.45 603.74 244.45C599.97 244.45 596.93 247.5 596.93 251.27C596.93 255.04 599.97 258.08 603.74 258.08Z" />
	<path id="Layer" class="shp1" d="M569.25 258.08C573.02 258.08 576.07 255.04 576.07 251.27C576.07 247.5 573.02 244.45 569.25 244.45C565.49 244.45 562.44 247.5 562.44 251.27C562.44 255.04 565.49 258.08 569.25 258.08Z" />
	<path id="Layer" class="shp1" d="M534.76 258.08C538.53 258.08 541.58 255.04 541.58 251.27C541.58 247.5 538.53 244.45 534.76 244.45C531 244.45 527.95 247.5 527.95 251.27C527.95 255.04 531 258.08 534.76 258.08Z" />
	<path id="Layer" class="shp1" d="M500.28 258.08C504.04 258.08 507.09 255.04 507.09 251.27C507.09 247.5 504.04 244.45 500.28 244.45C496.51 244.45 493.46 247.5 493.46 251.27C493.46 255.04 496.51 258.08 500.28 258.08Z" />
	<path id="Layer" class="shp1" d="M465.79 258.08C469.55 258.08 472.6 255.04 472.6 251.27C472.6 247.5 469.55 244.45 465.79 244.45C462.02 244.45 458.97 247.5 458.97 251.27C458.97 255.04 462.02 258.08 465.79 258.08Z" />
	<path id="Layer" class="shp1" d="M776.19 293C779.96 293 783 289.96 783 286.19C783 282.42 779.96 279.38 776.19 279.38C772.42 279.38 769.37 282.42 769.37 286.19C769.37 289.96 772.42 293 776.19 293Z" />
	<path id="Layer" class="shp1" d="M741.7 293C745.47 293 748.51 289.96 748.51 286.19C748.51 282.42 745.47 279.38 741.7 279.38C737.93 279.38 734.88 282.42 734.88 286.19C734.88 289.96 737.93 293 741.7 293Z" />
	<path id="Layer" class="shp1" d="M707.21 293C710.98 293 714.02 289.96 714.02 286.19C714.02 282.42 710.98 279.38 707.21 279.38C703.44 279.38 700.4 282.42 700.4 286.19C700.4 289.96 703.44 293 707.21 293Z" />
	<path id="Layer" class="shp1" d="M672.72 293C676.49 293 679.53 289.96 679.53 286.19C679.53 282.42 676.49 279.38 672.72 279.38C668.95 279.38 665.91 282.42 665.91 286.19C665.91 289.96 668.95 293 672.72 293Z" />
	<path id="Layer" class="shp1" d="M638.23 293C642 293 645.04 289.96 645.04 286.19C645.04 282.42 642 279.38 638.23 279.38C634.46 279.38 631.42 282.42 631.42 286.19C631.42 289.96 634.46 293 638.23 293Z" />
	<path id="Layer" class="shp1" d="M603.74 293C607.51 293 610.56 289.96 610.56 286.19C610.56 282.42 607.51 279.38 603.74 279.38C599.97 279.38 596.93 282.42 596.93 286.19C596.93 289.96 599.97 293 603.74 293Z" />
	<path id="Layer" class="shp1" d="M569.25 293C573.02 293 576.07 289.96 576.07 286.19C576.07 282.42 573.02 279.38 569.25 279.38C565.49 279.38 562.44 282.42 562.44 286.19C562.44 289.96 565.49 293 569.25 293Z" />
	<path id="Layer" class="shp1" d="M534.76 293C538.53 293 541.58 289.96 541.58 286.19C541.58 282.42 538.53 279.38 534.76 279.38C531 279.38 527.95 282.42 527.95 286.19C527.95 289.96 531 293 534.76 293Z" />
	<path id="Layer" class="shp1" d="M500.28 293C504.04 293 507.09 289.96 507.09 286.19C507.09 282.42 504.04 279.38 500.28 279.38C496.51 279.38 493.46 282.42 493.46 286.19C493.46 289.96 496.51 293 500.28 293Z" />
	<path id="Layer" class="shp1" d="M465.79 293C469.55 293 472.6 289.96 472.6 286.19C472.6 282.42 469.55 279.38 465.79 279.38C462.02 279.38 458.97 282.42 458.97 286.19C458.97 289.96 462.02 293 465.79 293Z" />
	<path id="Layer" class="shp1" d="M776.19 327.92C779.96 327.92 783 324.88 783 321.11C783 317.34 779.96 314.3 776.19 314.3C772.42 314.3 769.37 317.34 769.37 321.11C769.37 324.88 772.42 327.92 776.19 327.92Z" />
	<path id="Layer" class="shp1" d="M741.7 327.92C745.47 327.92 748.51 324.88 748.51 321.11C748.51 317.34 745.47 314.3 741.7 314.3C737.93 314.3 734.88 317.34 734.88 321.11C734.88 324.88 737.93 327.92 741.7 327.92Z" />
	<path id="Layer" class="shp1" d="M707.21 327.92C710.98 327.92 714.02 324.88 714.02 321.11C714.02 317.34 710.98 314.3 707.21 314.3C703.44 314.3 700.4 317.34 700.4 321.11C700.4 324.88 703.44 327.92 707.21 327.92Z" />
	<path id="Layer" class="shp1" d="M672.72 327.92C676.49 327.92 679.53 324.88 679.53 321.11C679.53 317.34 676.49 314.3 672.72 314.3C668.95 314.3 665.91 317.34 665.91 321.11C665.91 324.88 668.95 327.92 672.72 327.92Z" />
	<path id="Layer" class="shp1" d="M638.23 327.92C642 327.92 645.04 324.88 645.04 321.11C645.04 317.34 642 314.3 638.23 314.3C634.46 314.3 631.42 317.34 631.42 321.11C631.42 324.88 634.46 327.92 638.23 327.92Z" />
	<path id="Layer" class="shp1" d="M603.74 327.92C607.51 327.92 610.56 324.88 610.56 321.11C610.56 317.34 607.51 314.3 603.74 314.3C599.97 314.3 596.93 317.34 596.93 321.11C596.93 324.88 599.97 327.92 603.74 327.92Z" />
	<path id="Layer" class="shp1" d="M569.25 327.92C573.02 327.92 576.07 324.88 576.07 321.11C576.07 317.34 573.02 314.3 569.25 314.3C565.49 314.3 562.44 317.34 562.44 321.11C562.44 324.88 565.49 327.92 569.25 327.92Z" />
	<path id="Layer" class="shp1" d="M534.76 327.92C538.53 327.92 541.58 324.88 541.58 321.11C541.58 317.34 538.53 314.3 534.76 314.3C531 314.3 527.95 317.34 527.95 321.11C527.95 324.88 531 327.92 534.76 327.92Z" />
	<path id="Layer" class="shp1" d="M500.28 327.92C504.04 327.92 507.09 324.88 507.09 321.11C507.09 317.34 504.04 314.3 500.28 314.3C496.51 314.3 493.46 317.34 493.46 321.11C493.46 324.88 496.51 327.92 500.28 327.92Z" />
	<path id="Layer" class="shp1" d="M465.79 327.92C469.55 327.92 472.6 324.88 472.6 321.11C472.6 317.34 469.55 314.3 465.79 314.3C462.02 314.3 458.97 317.34 458.97 321.11C458.97 324.88 462.02 327.92 465.79 327.92Z" />
	<path id="Layer" class="shp1" d="M382.6 60.89C381.46 60.89 380.34 61.11 379.3 61.55C378.25 61.98 377.3 62.61 376.5 63.41C375.7 64.21 375.07 65.16 374.64 66.21C374.2 67.25 373.98 68.37 373.98 69.51L373.98 414.07C373.98 415.2 374.2 416.32 374.64 417.36C375.07 418.41 375.7 419.36 376.5 420.16C377.3 420.96 378.25 421.59 379.3 422.02C380.34 422.46 381.46 422.68 382.6 422.68L629.82 422.68C630.95 422.68 632.07 422.46 633.11 422.02C634.16 421.59 635.11 420.96 635.91 420.16C636.71 419.36 637.34 418.41 637.78 417.36C638.21 416.32 638.43 415.2 638.43 414.07L638.43 69.51C638.43 68.37 638.21 67.25 637.78 66.21C637.34 65.16 636.71 64.21 635.91 63.41C635.11 62.61 634.16 61.98 633.11 61.55C632.07 61.11 630.95 60.89 629.82 60.89L382.6 60.89" />
	<path id="Layer" class="shp3" d="M628.81 413.06L383.6 413.06L383.6 70.51L628.81 70.51L628.81 413.06Z" />
	<path id="Layer" class="shp1" d="M438.16 124.7C437.93 124.7 437.71 124.75 437.5 124.84C437.29 124.92 437.1 125.05 436.94 125.21C436.78 125.37 436.65 125.56 436.56 125.77C436.48 125.98 436.43 126.2 436.43 126.43L436.43 129.87C436.43 130.1 436.48 130.32 436.56 130.53C436.65 130.74 436.78 130.93 436.94 131.09C437.1 131.25 437.29 131.38 437.5 131.46C437.71 131.55 437.93 131.6 438.16 131.6L574.26 131.6C574.48 131.6 574.71 131.55 574.92 131.46C575.13 131.38 575.32 131.25 575.48 131.09C575.64 130.93 575.76 130.74 575.85 130.53C575.94 130.32 575.98 130.1 575.98 129.87L575.98 126.43C575.98 126.2 575.94 125.98 575.85 125.77C575.76 125.56 575.64 125.37 575.48 125.21C575.32 125.05 575.13 124.92 574.92 124.84C574.71 124.75 574.48 124.7 574.26 124.7L438.16 124.7" />
	<path id="Layer" class="shp1" d="M438.16 141.07C437.93 141.07 437.71 141.12 437.5 141.2C437.29 141.29 437.1 141.42 436.94 141.58C436.78 141.74 436.65 141.93 436.56 142.13C436.48 142.34 436.43 142.57 436.43 142.79L436.43 146.24C436.43 146.47 436.48 146.69 436.56 146.9C436.65 147.11 436.78 147.3 436.94 147.46C437.1 147.62 437.29 147.74 437.5 147.83C437.71 147.92 437.93 147.96 438.16 147.96L574.26 147.96C574.48 147.96 574.71 147.92 574.92 147.83C575.13 147.74 575.32 147.62 575.48 147.46C575.64 147.3 575.76 147.11 575.85 146.9C575.94 146.69 575.98 146.47 575.98 146.24L575.98 142.79C575.98 142.57 575.94 142.34 575.85 142.13C575.76 141.93 575.64 141.74 575.48 141.58C575.32 141.42 575.13 141.29 574.92 141.2C574.71 141.12 574.48 141.07 574.26 141.07L438.16 141.07" />
	<path id="Layer" class="shp2" d="M438.16 157.44C437.93 157.44 437.71 157.48 437.5 157.57C437.29 157.65 437.1 157.78 436.94 157.94C436.78 158.1 436.65 158.29 436.56 158.5C436.48 158.71 436.43 158.93 436.43 159.16L436.43 162.61C436.43 162.83 436.48 163.06 436.56 163.26C436.65 163.47 436.78 163.66 436.94 163.82C437.1 163.98 437.29 164.11 437.5 164.2C437.71 164.28 437.93 164.33 438.16 164.33L574.26 164.33C574.48 164.33 574.71 164.28 574.92 164.2C575.13 164.11 575.32 163.98 575.48 163.82C575.64 163.66 575.76 163.47 575.85 163.26C575.94 163.06 575.98 162.83 575.98 162.61L575.98 159.16C575.98 158.93 575.94 158.71 575.85 158.5C575.76 158.29 575.64 158.1 575.48 157.94C575.32 157.78 575.13 157.65 574.92 157.57C574.71 157.48 574.48 157.44 574.26 157.44L438.16 157.44" />
	<path id="Layer" class="shp1" d="M438.16 174.16C437.93 174.16 437.71 174.21 437.5 174.29C437.29 174.38 437.1 174.51 436.94 174.67C436.78 174.83 436.65 175.02 436.56 175.23C436.48 175.43 436.43 175.66 436.43 175.88L436.43 179.33C436.43 179.56 436.48 179.78 436.56 179.99C436.65 180.2 436.78 180.39 436.94 180.55C437.1 180.71 437.29 180.84 437.5 180.92C437.71 181.01 437.93 181.05 438.16 181.05L574.26 181.05C574.48 181.05 574.71 181.01 574.92 180.92C575.13 180.84 575.32 180.71 575.48 180.55C575.64 180.39 575.76 180.2 575.85 179.99C575.94 179.78 575.98 179.56 575.98 179.33L575.98 175.88C575.98 175.66 575.94 175.43 575.85 175.23C575.76 175.02 575.64 174.83 575.48 174.67C575.32 174.51 575.13 174.38 574.92 174.29C574.71 174.21 574.48 174.16 574.26 174.16L438.16 174.16" />
	<path id="Layer" class="shp1" d="M438.16 190.53C437.93 190.53 437.71 190.57 437.5 190.66C437.29 190.75 437.1 190.87 436.94 191.03C436.78 191.19 436.65 191.38 436.56 191.59C436.48 191.8 436.43 192.03 436.43 192.25L436.43 195.7C436.43 195.92 436.48 196.15 436.56 196.36C436.65 196.57 436.78 196.76 436.94 196.92C437.1 197.08 437.29 197.2 437.5 197.29C437.71 197.38 437.93 197.42 438.16 197.42L574.26 197.42C574.48 197.42 574.71 197.38 574.92 197.29C575.13 197.2 575.32 197.08 575.48 196.92C575.64 196.76 575.76 196.57 575.85 196.36C575.94 196.15 575.98 195.92 575.98 195.7L575.98 192.25C575.98 192.03 575.94 191.8 575.85 191.59C575.76 191.38 575.64 191.19 575.48 191.03C575.32 190.87 575.13 190.75 574.92 190.66C574.71 190.57 574.48 190.53 574.26 190.53L438.16 190.53" />
	<path id="Layer" class="shp1" d="M438.16 206.9C437.93 206.9 437.71 206.94 437.5 207.03C437.29 207.11 437.1 207.24 436.94 207.4C436.78 207.56 436.65 207.75 436.56 207.96C436.48 208.17 436.43 208.39 436.43 208.62L436.43 212.06C436.43 212.29 436.48 212.51 436.56 212.72C436.65 212.93 436.78 213.12 436.94 213.28C437.1 213.44 437.29 213.57 437.5 213.66C437.71 213.74 437.93 213.79 438.16 213.79L574.26 213.79C574.48 213.79 574.71 213.74 574.92 213.66C575.13 213.57 575.32 213.44 575.48 213.28C575.64 213.12 575.76 212.93 575.85 212.72C575.94 212.51 575.98 212.29 575.98 212.06L575.98 208.62C575.98 208.39 575.94 208.17 575.85 207.96C575.76 207.75 575.64 207.56 575.48 207.4C575.32 207.24 575.13 207.11 574.92 207.03C574.71 206.94 574.48 206.9 574.26 206.9L438.16 206.9" />
	<path id="Layer" class="shp2" d="M573.39 261.95C573.65 261.95 573.91 262 574.15 262.1C574.4 262.2 574.62 262.35 574.8 262.54C574.99 262.72 575.13 262.94 575.23 263.19C575.34 263.43 575.39 263.69 575.39 263.95L575.39 356.87C575.39 357.13 575.34 357.39 575.23 357.63C575.13 357.87 574.99 358.09 574.8 358.28C574.62 358.47 574.4 358.61 574.15 358.71C573.91 358.81 573.65 358.87 573.39 358.87L439.26 358.87C438.99 358.87 438.73 358.81 438.49 358.71C438.25 358.61 438.03 358.47 437.84 358.28C437.66 358.09 437.51 357.87 437.41 357.63C437.31 357.39 437.26 357.13 437.26 356.87L437.26 263.95C437.26 263.69 437.31 263.43 437.41 263.19C437.51 262.94 437.66 262.72 437.84 262.54C438.03 262.35 438.25 262.2 438.49 262.1C438.73 262 438.99 261.95 439.26 261.95L573.39 261.95Z" />
	<path id="Layer" class="shp0" d="M505.76 161.18L507.17 160.81L476.44 45.22L298.21 45.22L298.21 46.68L475.32 46.68L505.76 161.18L505.76 161.18Z" />
	<path id="Layer" fill-rule="evenodd" class="shp0" d="M283.65 61.24C281.64 61.24 279.66 60.84 277.8 60.07C275.95 59.3 274.26 58.18 272.85 56.76C271.43 55.34 270.3 53.65 269.53 51.8C268.76 49.94 268.36 47.96 268.36 45.95C268.36 39.76 272.09 34.19 277.8 31.82C283.51 29.46 290.09 30.76 294.46 35.14C298.84 39.51 300.15 46.09 297.78 51.8C295.41 57.51 289.84 61.24 283.65 61.24ZM283.65 32.11C281.84 32.12 280.04 32.48 278.36 33.17C276.68 33.87 275.16 34.89 273.87 36.17C272.59 37.46 271.57 38.98 270.88 40.66C270.18 42.34 269.82 44.13 269.82 45.95C269.82 51.55 273.19 56.59 278.36 58.73C283.53 60.87 289.48 59.69 293.43 55.73C297.39 51.78 298.58 45.82 296.43 40.66C294.29 35.49 289.25 32.11 283.65 32.11Z" />
	<path id="Layer" class="shp2" d="M283.65 51.77C286.87 51.77 289.48 49.17 289.48 45.95C289.48 42.73 286.87 40.12 283.65 40.12C280.43 40.12 277.83 42.73 277.83 45.95C277.83 49.17 280.43 51.77 283.65 51.77Z" />
	<path id="Layer" class="shp0" d="M510.52 356.94L509.12 357.32L540.06 472.85L718.29 472.5L718.28 471.05L541.18 471.39L510.52 356.94L510.52 356.94Z" />
	<path id="Layer" fill-rule="evenodd" class="shp0" d="M732.82 456.46C734.83 456.46 736.82 456.85 738.67 457.61C740.53 458.38 742.21 459.5 743.64 460.92C745.06 462.34 746.19 464.02 746.96 465.87C747.73 467.72 748.13 469.71 748.14 471.72C748.15 477.9 744.44 483.49 738.73 485.86C733.02 488.24 726.44 486.95 722.06 482.58C717.68 478.22 716.36 471.64 718.71 465.92C721.07 460.2 726.64 456.47 732.82 456.46ZM732.88 485.58C734.69 485.58 736.49 485.21 738.17 484.51C739.84 483.82 741.36 482.79 742.65 481.51C743.93 480.22 744.94 478.69 745.64 477.01C746.33 475.34 746.69 473.54 746.68 471.72C746.67 466.13 743.29 461.09 738.12 458.96C732.95 456.82 727 458.02 723.05 461.98C719.1 465.95 717.93 471.9 720.08 477.07C722.23 482.23 727.28 485.59 732.88 485.58Z" />
	<path id="Layer" class="shp2" d="M732.85 477.57C736.07 477.57 738.67 474.97 738.67 471.75C738.67 468.53 736.07 465.92 732.85 465.92C729.63 465.92 727.02 468.53 727.02 471.75C727.02 474.97 729.63 477.57 732.85 477.57Z" />
	<path id="Layer" class="shp4" d="M166.17 600.59L176.45 600.59L174.61 543.7L147.45 545.17L166.17 600.59L166.17 600.59Z" />
	<path id="Layer" class="shp5" d="M164.77 633.29C167.87 634.71 170.47 623.24 173.09 625.81C180.41 633 187.97 634.57 197.74 631.43L197.96 631.39C198.55 631.2 199.1 630.89 199.57 630.48C200.03 630.08 200.41 629.58 200.68 629.02C200.95 628.47 201.11 627.86 201.13 627.24C201.16 626.62 201.06 626 200.85 625.43L200.85 625.43C200.72 625.08 200.55 624.75 200.34 624.45C200.13 624.14 199.88 623.86 199.61 623.62C199.33 623.37 199.03 623.16 198.7 622.99C198.38 622.81 198.03 622.68 197.67 622.59L189.89 620.65L177.67 599.15L165.19 598.31L165.19 598.31C163.8 600.08 162.62 602 161.67 604.03C160.71 606.06 159.99 608.2 159.51 610.39C159.04 612.59 158.81 614.83 158.84 617.07C158.87 619.32 159.15 621.56 159.68 623.74C160.81 628.36 162.56 632.28 164.77 633.29Z" />
	<path id="Layer" class="shp4" d="M68.53 593.07L78.09 596.85L97.31 543.27L71.51 534.65L68.53 593.07L68.53 593.07Z" />
	<path id="Layer" class="shp5" d="M55.2 622.96C57.57 625.42 64.2 615.71 65.69 619.06C69.85 628.44 76.31 632.68 86.55 633.35L86.77 633.4C87.39 633.44 88.01 633.36 88.59 633.15C89.18 632.95 89.71 632.62 90.17 632.2C90.62 631.78 90.99 631.28 91.24 630.71C91.5 630.15 91.63 629.54 91.65 628.92L91.65 628.92C91.65 628.55 91.61 628.18 91.53 627.82C91.45 627.46 91.33 627.11 91.16 626.78C90.99 626.45 90.79 626.14 90.55 625.86C90.31 625.58 90.04 625.33 89.74 625.12L83.21 620.44L79.75 595.96L68.46 590.59L68.46 590.59C66.52 591.72 64.72 593.07 63.08 594.61C61.44 596.15 59.99 597.87 58.74 599.74C57.49 601.6 56.45 603.6 55.65 605.7C54.85 607.8 54.29 609.98 53.98 612.21C53.33 616.92 53.52 621.21 55.2 622.96Z" />
	<path id="Layer" class="shp4" d="M99.73 318.36L115.51 322.42C116.71 322.73 117.95 322.76 119.16 322.52C120.37 322.28 121.51 321.78 122.5 321.04C123.49 320.31 124.3 319.36 124.88 318.27C125.45 317.18 125.77 315.97 125.82 314.74L125.82 314.74C125.86 313.61 125.67 312.48 125.26 311.42C124.85 310.36 124.22 309.4 123.43 308.6C122.63 307.8 121.67 307.16 120.62 306.75C119.56 306.33 118.44 306.13 117.3 306.17L103.4 306.62L76.62 296.86L101.94 277.99L99 251.56L49.67 291.16C49.23 291.52 48.83 291.91 48.47 292.35C48.11 292.78 47.8 293.25 47.54 293.75C47.28 294.25 47.07 294.77 46.92 295.31C46.76 295.85 46.66 296.41 46.62 296.97L46.62 296.97C46.56 297.91 46.65 298.85 46.91 299.76C47.16 300.66 47.57 301.52 48.11 302.29C48.65 303.06 49.33 303.72 50.1 304.26C50.87 304.8 51.73 305.21 52.63 305.46C64.19 314.89 81.03 317.78 99.73 318.36Z" />
	<path id="Layer" class="shp4" d="M135.7 219.26C149.91 219.26 161.4 207.77 161.4 193.57C161.4 179.36 149.91 167.87 135.7 167.87C121.5 167.87 110.01 179.36 110.01 193.57C110.01 207.77 121.5 219.26 135.7 219.26Z" />
	<path id="Layer" class="shp4" d="M104.14 228.8L138.64 242.75C138.39 240.05 138.37 237.33 138.6 234.63C138.82 231.93 139.27 229.25 139.96 226.62C140.65 224 141.56 221.44 142.7 218.98C143.83 216.51 145.17 214.15 146.72 211.92L118.09 205.31C118.46 214.06 113.73 221.87 104.14 228.8Z" />
	<path id="Layer" class="shp2" d="M97.9 288.63C125.71 290.86 140.92 287.16 164.33 273.58L155.52 253.03L155.52 253.03C155.74 251.49 155.75 249.92 155.55 248.38C155.34 246.84 154.93 245.33 154.31 243.9C153.7 242.47 152.89 241.14 151.91 239.93C150.93 238.72 149.79 237.65 148.52 236.75L139.37 230.27L111.48 222.2L110.23 222.26C108.39 222.35 106.58 222.77 104.89 223.51C103.2 224.25 101.66 225.28 100.34 226.57C99.02 227.85 97.94 229.37 97.16 231.03C96.38 232.7 95.91 234.5 95.77 236.34C89.71 254.45 89.67 271.95 97.9 288.63Z" />
	<path id="Layer" class="shp5" d="M103.4 331.57L162.87 324.97L167.27 305.88C177.03 291.14 172.77 277.64 161.4 264.77C140.66 278.08 121.42 283.83 93.86 279.45C101.19 297.28 107.96 314.79 103.4 331.57Z" />
	<path id="Layer" class="shp5" d="M57.16 554L104.51 551.43L119.92 428.84L132.4 550.7L188.56 548.13C171.43 468.02 159.53 391.97 162.87 322.03L104.14 327.17C84.23 348.16 74.35 381.66 68.53 421.5C62.72 461.35 58.03 507.54 57.16 554Z" />
	<path id="Layer" class="shp5" d="M107.42 170.18C112.3 170.18 116.25 166.23 116.25 161.34C116.25 156.46 112.3 152.51 107.42 152.51C102.54 152.51 98.59 156.46 98.59 161.34C98.59 166.23 102.54 170.18 107.42 170.18Z" />
	<path id="Layer" class="shp5" d="M116.52 159.18C116.45 158.07 116.17 156.99 115.69 155.98C115.22 154.97 114.55 154.07 113.74 153.31C112.93 152.55 111.98 151.95 110.94 151.54C109.91 151.13 108.81 150.93 107.69 150.93C107.88 150.91 108.06 150.88 108.24 150.87C110.58 150.72 112.88 151.5 114.64 153.05C116.4 154.59 117.47 156.77 117.62 159.11C117.77 161.45 116.99 163.75 115.44 165.51C113.89 167.27 111.71 168.34 109.37 168.49C109.19 168.5 109.01 168.5 108.82 168.5C109.93 168.36 110.99 168.01 111.97 167.48C112.94 166.94 113.81 166.22 114.52 165.37C115.22 164.51 115.77 163.52 116.11 162.47C116.45 161.41 116.59 160.29 116.52 159.18Z" />
	<path id="Layer" class="shp5" d="M116.57 162.95C124.45 156.42 147.04 164.72 148.49 169.12C159.15 170.57 167.21 176.78 167.21 187.83L167.21 187.83C160.88 190.43 153.68 190.11 145.89 187.83C133.48 197.95 132.63 210.66 140.18 225.26L130.89 225.45L119.38 208.63L118.83 225.69L97.55 225.26L97.55 200.81C97.53 198.79 97.63 196.76 97.86 194.75C98.08 192.74 98.42 190.75 98.88 188.77C99.34 186.8 99.92 184.86 100.61 182.96C101.3 181.06 102.1 179.2 103.01 177.39C106.32 170.95 111.47 167.18 116.57 162.95Z" />
	<path id="Layer" class="shp4" d="M136.39 206.15C138.72 206.15 140.61 203.51 140.61 200.24C140.61 196.97 138.72 194.33 136.39 194.33C134.05 194.33 132.17 196.97 132.17 200.24C132.17 203.51 134.05 206.15 136.39 206.15Z" />
	<path id="Layer" class="shp2" d="M168.69 426.99C168.5 426.99 168.3 427.03 168.12 427.1C167.94 427.18 167.78 427.29 167.64 427.42C167.51 427.56 167.4 427.73 167.32 427.9C167.25 428.08 167.21 428.28 167.21 428.47L167.21 487.79C167.21 487.99 167.25 488.18 167.32 488.36C167.4 488.54 167.51 488.7 167.64 488.84C167.78 488.98 167.94 489.09 168.12 489.16C168.3 489.24 168.5 489.27 168.69 489.27L211.25 489.27C211.45 489.27 211.64 489.24 211.82 489.16C212 489.09 212.16 488.98 212.3 488.84C212.44 488.7 212.55 488.54 212.62 488.36C212.7 488.18 212.74 487.99 212.74 487.79L212.74 428.47C212.74 428.28 212.7 428.08 212.62 427.9C212.55 427.73 212.44 427.56 212.3 427.42C212.16 427.29 212 427.18 211.82 427.1C211.64 427.03 211.45 426.99 211.25 426.99L168.69 426.99" />
	<path id="Layer" class="shp4" d="M162.87 404.98L161.43 429.9C161.34 431.5 161.6 433.1 162.21 434.59C162.81 436.08 163.74 437.42 164.92 438.5C166.11 439.58 167.52 440.39 169.06 440.86C170.59 441.33 172.21 441.46 173.8 441.22L173.8 441.22C180.13 440.29 180.28 434.1 178.72 427.9L172.81 404.25C158.31 352.25 154.4 301.21 155.13 251.44C155.16 249.75 154.85 248.07 154.21 246.51C153.57 244.94 152.63 243.53 151.43 242.34C150.23 241.15 148.8 240.22 147.23 239.6C145.66 238.97 143.98 238.68 142.3 238.72L142.3 238.72C140.65 238.77 139.03 239.14 137.53 239.82C136.02 240.5 134.67 241.46 133.55 242.67C132.42 243.87 131.54 245.28 130.96 246.82C130.38 248.36 130.12 250 130.17 251.65C132.23 310.1 140.75 363.18 162.87 404.98Z" />
</svg>