<svg width="900" height="411" viewBox="0 0 900 411" fill="none" xmlns="http://www.w3.org/2000/svg">
<path d="M10.7852 411V29.1152L53.7539 10.3164L210.053 10.585L191.254 53.5537H53.7539V186.757H210.053L191.254 229.726H53.7539V392.201L10.7852 411Z" fill="#666666"/>
<path d="M0.785156 401V19.1152L43.7539 0.316406L200.053 0.584961L181.254 43.5537H43.7539V176.757H200.053L181.254 219.726H43.7539V382.201L0.785156 401Z" fill="#CCCCCC"/>
<path d="M124.823 375.111C124.823 377.797 125.881 380.564 127.997 383.412C131.903 388.62 138.129 391.225 146.674 391.225C151.882 391.225 156.48 390.004 160.468 387.562L167.792 405.995C161.444 409.332 154.405 411 146.674 411C134.467 411 123.643 406.524 114.203 397.572C107.855 391.062 104.682 383.575 104.682 375.111C104.682 374.786 104.682 374.46 104.682 374.135C104.682 358.917 112.453 348.134 127.997 341.786L177.68 321.4C177.68 313.669 175.116 307.2 169.989 301.991C164.862 296.701 158.393 294.057 150.58 294.057C143.744 294.057 137.722 296.62 132.514 301.747C127.468 306.711 124.864 312.978 124.701 320.546V322.255L105.17 330.922V320.18C105.17 308.786 110.053 297.882 119.818 287.465C128.119 278.676 138.617 274.281 151.312 274.281C164.008 274.281 174.831 278.757 183.783 287.709C192.735 296.661 197.211 307.484 197.211 320.18V402.455L177.68 411V342.763L137.519 359.12C129.055 363.108 124.823 368.438 124.823 375.111ZM292.426 391.225C299.669 391.225 305.65 388.783 310.37 383.9C315.09 378.855 317.45 373.24 317.45 367.055C317.45 361.602 315.09 356.435 310.37 351.552C305.569 346.669 299.058 344.024 290.839 343.617C280.748 343.129 272.732 340.077 266.791 334.462C261.013 329.009 257.554 321.197 256.415 311.024C256.334 310.292 256.293 309.56 256.293 308.827C256.7 299.957 260.281 292.063 267.035 285.146C273.952 277.903 282.375 274.281 292.304 274.281C302.802 274.281 311.225 277.903 317.572 285.146C321.804 290.028 325.1 296.498 327.46 304.555L309.76 312.367C308.458 306.996 306.464 302.724 303.778 299.55C300.767 296.213 296.902 294.545 292.182 294.545C287.706 294.545 283.799 296.213 280.463 299.55C277.37 302.642 275.824 306.142 275.824 310.048C275.824 310.211 275.824 310.414 275.824 310.658C275.824 314.564 277.289 317.942 280.219 320.79C282.904 323.476 286.811 325.103 291.938 325.673C306.098 327.3 316.962 331.654 324.53 338.734C332.831 346.71 336.981 356.435 336.981 367.909V368.275C336.819 379.18 332.79 388.946 324.896 397.572C316.596 406.524 305.772 411 292.426 411C279.649 411 269.151 406.605 260.932 397.816C251.736 388.132 246.853 377.227 246.283 365.102L246.161 363.881L265.692 355.336L265.814 364.735C265.896 372.304 268.459 378.57 273.505 383.534C278.713 388.661 285.02 391.225 292.426 391.225ZM458.441 363.881C458.441 363.881 464.952 361.033 477.973 355.336V365.102C477.973 377.797 473.497 388.62 464.545 397.572C455.593 406.524 444.77 411 432.074 411C419.379 411 408.515 406.524 399.481 397.572C390.448 388.62 385.932 377.797 385.932 365.102V296.254H370.795L379.34 276.723H385.932V235.097L405.463 226.552V276.723H467.475L458.93 296.254H405.463V364.735C405.626 372.385 408.23 378.651 413.275 383.534C418.565 388.661 424.75 391.225 431.83 391.225C439.073 391.225 445.339 388.62 450.629 383.412C455.837 378.367 458.441 371.856 458.441 363.881ZM572.943 391.225C579.779 391.225 585.801 388.661 591.01 383.534C596.055 378.57 598.66 372.304 598.822 364.735V363.026L618.354 354.359V365.102C618.354 376.495 613.471 387.4 603.705 397.816C595.404 406.605 584.906 411 572.211 411C559.516 411 548.692 406.524 539.74 397.572C530.788 388.62 526.312 377.797 526.312 365.102V320.18C526.312 307.484 530.788 296.661 539.74 287.709C548.692 278.757 559.516 274.281 572.211 274.281C584.418 274.281 595.282 278.757 604.804 287.709C613.837 296.173 618.354 306.996 618.354 320.18V331.654L545.844 363.881C545.844 371.612 548.407 378.122 553.534 383.412C558.661 388.62 565.131 391.225 572.943 391.225ZM571.479 294.057C564.643 294.057 558.661 296.62 553.534 301.747C548.407 306.874 545.844 313.018 545.844 320.18C545.844 320.342 545.844 320.465 545.844 320.546V342.519L598.7 318.959C598.293 312.123 595.73 306.386 591.01 301.747C585.801 296.62 579.291 294.057 571.479 294.057ZM666.693 411V320.18C666.693 307.484 671.169 296.661 680.121 287.709C689.073 278.757 699.896 274.281 712.592 274.281C725.531 274.281 736.396 278.757 745.185 287.709C754.218 296.986 758.734 307.81 758.734 320.18V320.668L739.203 329.213V320.546C739.04 312.978 736.436 306.711 731.391 301.747C726.182 296.62 720.038 294.057 712.958 294.057C705.552 294.057 699.245 296.62 694.037 301.747C688.829 306.874 686.225 313.018 686.225 320.18C686.225 320.342 686.225 320.465 686.225 320.546V402.455L666.693 411ZM807.074 411V320.18C807.074 307.484 811.55 296.661 820.502 287.709C829.454 278.757 840.277 274.281 852.973 274.281C865.912 274.281 876.776 278.757 885.565 287.709C894.599 296.986 899.115 307.81 899.115 320.18V320.668L879.584 329.213V320.546C879.421 312.978 876.817 306.711 871.771 301.747C866.563 296.62 860.419 294.057 853.339 294.057C845.933 294.057 839.626 296.62 834.418 301.747C829.21 306.874 826.605 313.018 826.605 320.18C826.605 320.342 826.605 320.465 826.605 320.546V402.455L807.074 411Z" fill="#666666"/>
<path d="M114.823 365.111C114.823 367.797 115.881 370.564 117.997 373.412C121.903 378.62 128.129 381.225 136.674 381.225C141.882 381.225 146.48 380.004 150.468 377.562L157.792 395.995C151.444 399.332 144.405 401 136.674 401C124.467 401 113.643 396.524 104.203 387.572C97.8555 381.062 94.6816 373.575 94.6816 365.111C94.6816 364.786 94.6816 364.46 94.6816 364.135C94.6816 348.917 102.453 338.134 117.997 331.786L167.68 311.4C167.68 303.669 165.116 297.2 159.989 291.991C154.862 286.701 148.393 284.057 140.58 284.057C133.744 284.057 127.722 286.62 122.514 291.747C117.468 296.711 114.864 302.978 114.701 310.546V312.255L95.1699 320.922V310.18C95.1699 298.786 100.053 287.882 109.818 277.465C118.119 268.676 128.617 264.281 141.312 264.281C154.008 264.281 164.831 268.757 173.783 277.709C182.735 286.661 187.211 297.484 187.211 310.18V392.455L167.68 401V332.763L127.519 349.12C119.055 353.108 114.823 358.438 114.823 365.111ZM282.426 381.225C289.669 381.225 295.65 378.783 300.37 373.9C305.09 368.855 307.45 363.24 307.45 357.055C307.45 351.602 305.09 346.435 300.37 341.552C295.569 336.669 289.058 334.024 280.839 333.617C270.748 333.129 262.732 330.077 256.791 324.462C251.013 319.009 247.554 311.197 246.415 301.024C246.334 300.292 246.293 299.56 246.293 298.827C246.7 289.957 250.281 282.063 257.035 275.146C263.952 267.903 272.375 264.281 282.304 264.281C292.802 264.281 301.225 267.903 307.572 275.146C311.804 280.028 315.1 286.498 317.46 294.555L299.76 302.367C298.458 296.996 296.464 292.724 293.778 289.55C290.767 286.213 286.902 284.545 282.182 284.545C277.706 284.545 273.799 286.213 270.463 289.55C267.37 292.642 265.824 296.142 265.824 300.048C265.824 300.211 265.824 300.414 265.824 300.658C265.824 304.564 267.289 307.942 270.219 310.79C272.904 313.476 276.811 315.103 281.938 315.673C296.098 317.3 306.962 321.654 314.53 328.734C322.831 336.71 326.981 346.435 326.981 357.909V358.275C326.819 369.18 322.79 378.946 314.896 387.572C306.596 396.524 295.772 401 282.426 401C269.649 401 259.151 396.605 250.932 387.816C241.736 378.132 236.853 367.227 236.283 355.102L236.161 353.881L255.692 345.336L255.814 354.735C255.896 362.304 258.459 368.57 263.505 373.534C268.713 378.661 275.02 381.225 282.426 381.225ZM448.441 353.881C448.441 353.881 454.952 351.033 467.973 345.336V355.102C467.973 367.797 463.497 378.62 454.545 387.572C445.593 396.524 434.77 401 422.074 401C409.379 401 398.515 396.524 389.481 387.572C380.448 378.62 375.932 367.797 375.932 355.102V286.254H360.795L369.34 266.723H375.932V225.097L395.463 216.552V266.723H457.475L448.93 286.254H395.463V354.735C395.626 362.385 398.23 368.651 403.275 373.534C408.565 378.661 414.75 381.225 421.83 381.225C429.073 381.225 435.339 378.62 440.629 373.412C445.837 368.367 448.441 361.856 448.441 353.881ZM562.943 381.225C569.779 381.225 575.801 378.661 581.01 373.534C586.055 368.57 588.66 362.304 588.822 354.735V353.026L608.354 344.359V355.102C608.354 366.495 603.471 377.4 593.705 387.816C585.404 396.605 574.906 401 562.211 401C549.516 401 538.692 396.524 529.74 387.572C520.788 378.62 516.312 367.797 516.312 355.102V310.18C516.312 297.484 520.788 286.661 529.74 277.709C538.692 268.757 549.516 264.281 562.211 264.281C574.418 264.281 585.282 268.757 594.804 277.709C603.837 286.173 608.354 296.996 608.354 310.18V321.654L535.844 353.881C535.844 361.612 538.407 368.122 543.534 373.412C548.661 378.62 555.131 381.225 562.943 381.225ZM561.479 284.057C554.643 284.057 548.661 286.62 543.534 291.747C538.407 296.874 535.844 303.018 535.844 310.18C535.844 310.342 535.844 310.465 535.844 310.546V332.519L588.7 308.959C588.293 302.123 585.73 296.386 581.01 291.747C575.801 286.62 569.291 284.057 561.479 284.057ZM656.693 401V310.18C656.693 297.484 661.169 286.661 670.121 277.709C679.073 268.757 689.896 264.281 702.592 264.281C715.531 264.281 726.396 268.757 735.185 277.709C744.218 286.986 748.734 297.81 748.734 310.18V310.668L729.203 319.213V310.546C729.04 302.978 726.436 296.711 721.391 291.747C716.182 286.62 710.038 284.057 702.958 284.057C695.552 284.057 689.245 286.62 684.037 291.747C678.829 296.874 676.225 303.018 676.225 310.18C676.225 310.342 676.225 310.465 676.225 310.546V392.455L656.693 401ZM797.074 401V310.18C797.074 297.484 801.55 286.661 810.502 277.709C819.454 268.757 830.277 264.281 842.973 264.281C855.912 264.281 866.776 268.757 875.565 277.709C884.599 286.986 889.115 297.81 889.115 310.18V310.668L869.584 319.213V310.546C869.421 302.978 866.817 296.711 861.771 291.747C856.563 286.62 850.419 284.057 843.339 284.057C835.933 284.057 829.626 286.62 824.418 291.747C819.21 296.874 816.605 303.018 816.605 310.18C816.605 310.342 816.605 310.465 816.605 310.546V392.455L797.074 401Z" fill="#CCCCCC"/>
</svg>
